<svg xmlns="http://www.w3.org/2000/svg" xmlns:se="http://svg-edit.googlecode.com" xmlns:xlink="http://www.w3.org/1999/xlink" xmlns:dc="http://purl.org/dc/elements/1.1/" xmlns:cc="http://creativecommons.org/ns#" xmlns:rdf="http://www.w3.org/1999/02/22-rdf-syntax-ns#" xmlns:inkscape="http://www.inkscape.org/namespaces/inkscape" width="155.18797395214358" height="181.71428940196284" style="">                                    <title>my vector image</title>                                    <!-- Created with Vector Paint - http://www.vectorpaint.yaks.com/ https://chrome.google.com/webstore/detail/hnbpdiengicdefcjecjbnjnoifekhgdo -->                                    <rect id="backgroundrect" width="100%" height="100%" x="0" y="0" fill="#FFFFFF" stroke="none" class="selected" style=""/>                                <g class="currentLayer" style=""><title>Layer 1</title><polyline fill="#0bd5d5" stroke="#4141e8" stroke-width="14" stroke-linejoin="round" stroke-dashoffset="" fill-rule="nonzero" marker-start="" marker-mid="" marker-end="" id="svg_1" points="44.08721160888672,30.556396484375 45.590965270996094,31.308273315429688 47.84661102294922,31.308273315429688 50.102256774902344,32.060150146484375 51.60601043701172,32.81202697753906 53.861656188964844,32.81202697753906 56.11730194091797,34.3157958984375 57.621055603027344,35.06767272949219 60.628562927246094,35.819549560546875 63.63610076904297,36.571434020996094 67.39546966552734,37.32330322265625 71.15486907958984,37.32330322265625 73.41051483154297,38.07518005371094 78.67366790771484,38.82707214355469 80.92931365966797,38.82707214355469 83.1849594116211,38.82707214355469 84.68871307373047,38.82707214355469 87.69622039794922,38.82707214355469 89.20000457763672,38.07518005371094 90.7037582397461,38.07518005371094 91.45561981201172,37.32330322265625 92.95940399169922,35.819549560546875 94.4631576538086,33.56390380859375 95.96691131591797,31.308273315429688 97.47066497802734,29.052627563476562 97.47066497802734,26.79698944091797 98.2225570678711,25.293228149414062 98.2225570678711,23.789474487304688 98.2225570678711,23.03759765625 97.47066497802734,20.781951904296875 96.71880340576172,19.2781982421875 95.96691131591797,17.774429321289062 93.71126556396484,15.518798828125 92.20751190185547,14.015037536621094 88.44811248779297,11.7593994140625 86.9443588256836,9.503761291503906 86.9443588256836,8.751880645751953 85.44060516357422,8.751880645751953 84.68871307373047,10.255638122558594 82.43306732177734,12.511276245117188 80.92931365966797,14.766921997070312 79.4255599975586,17.774429321289062 78.67366790771484,20.781951904296875 76.41805267333984,22.285720825195312 75.6661605834961,24.541358947753906 74.91426849365234,26.79698944091797 72.65865325927734,29.80450439453125 71.9067611694336,32.060150146484375 71.9067611694336,33.56390380859375 71.15486907958984,36.571434020996094 69.65111541748047,38.82707214355469 68.89925384521484,41.83458709716797 68.1473617553711,44.09021759033203 67.39546966552734,47.84962463378906 67.39546966552734,50.857147216796875 66.64360809326172,53.11277770996094 65.89171600341797,56.87217712402344 65.89171600341797,60.63157653808594 64.3879623413086,65.14285278320312 63.63610076904297,69.65412902832031 62.88420867919922,72.66165924072266 62.88420867919922,74.91729736328125 62.88420867919922,78.67669677734375 62.88420867919922,80.93232727050781 62.13231658935547,83.93984985351562 61.380455017089844,86.19550323486328 60.628562927246094,89.20301055908203 60.628562927246094,92.21053314208984 59.12480926513672,95.21805572509766 58.37291717529297,98.22557830810547 57.621055603027344,100.48120880126953 55.36540985107422,104.24060821533203 54.61351776123047,108.75188446044922 52.35790252685547,113.2631607055664 49.350364685058594,119.27820587158203 46.342857360839844,124.5413589477539 44.839073181152344,128.3007583618164 42.583457946777344,131.30828094482422 41.079689025878906,134.31580352783203 40.32781219482422,137.32331085205078 39.57593536376953,138.82707977294922 38.072181701660156,139.5789566040039 37.320289611816406,141.83458709716797 35.064659118652344,144.84210968017578 34.312782287597656,145.59398651123047 32.80901336669922,147.0977554321289 31.305259704589844,148.60150909423828 29.80150604248047,149.35338592529297 28.29773712158203,151.6090316772461 25.29021453857422,153.86466217041016 20.027061462402344,156.87218475341797 17.01953887939453,157.62406158447266 14.012031555175781,158.3759536743164 12.508262634277344,159.1278305053711 11.756385803222656,159.1278305053711 11.756385803222656,158.3759536743164 11.756385803222656,156.12030792236328 11.756385803222656,153.86466217041016 9.500755310058594,150.10526275634766 7.996986389160156,147.0977554321289 7.996986389160156,144.84210968017578 7.996986389160156,142.58647918701172 7.996986389160156,141.08271026611328 7.996986389160156,138.07520294189453 8.748863220214844,135.06768035888672 9.500755310058594,133.56391143798828 11.004508972167969,132.0601577758789 12.508262634277344,129.80451202392578 14.012031555175781,128.3007583618164 15.515785217285156,127.54888153076172 17.01953887939453,127.54888153076172 19.275184631347656,127.54888153076172 22.28270721435547,127.54888153076172 26.04210662841797,127.54888153076172 29.04961395263672,128.3007583618164 32.80901336669922,128.3007583618164 35.81653594970703,129.80451202392578 38.824058532714844,130.55640411376953 41.831581115722656,132.0601577758789 44.839073181152344,135.06768035888672 47.84661102294922,137.32331085205078 49.350364685058594,138.82707977294922 53.109764099121094,141.83458709716797 56.11730194091797,144.0902328491211 58.37291717529297,146.34587860107422 60.628562927246094,147.8496322631836 62.88420867919922,150.10526275634766 65.13985443115234,151.6090316772461 66.64360809326172,153.11278533935547 68.89925384521484,155.3684310913086 71.9067611694336,156.87218475341797 76.41805267333984,159.87970733642578 80.92931365966797,162.13533782958984 83.93685150146484,163.63910675048828 89.95186614990234,164.39098358154297 93.71126556396484,165.89473724365234 97.47066497802734,166.6466293334961 101.23006439208984,167.39850616455078 105.7413558959961,167.39850616455078 111.00450897216797,167.39850616455078 117.0195541381836,167.39850616455078 122.28270721435547,167.39850616455078 127.54586029052734,167.39850616455078 132.05712127685547,167.39850616455078 135.06465911865234,167.39850616455078 137.32030487060547,167.39850616455078 140.32781219482422,167.39850616455078 141.8315658569336,166.6466293334961 " style="color: rgb(11, 234, 219);" class=""/><polyline fill="#e8e841" stroke="#0bd50b" stroke-width="14" stroke-linejoin="round" stroke-dashoffset="" fill-rule="nonzero" marker-start="" marker-mid="" marker-end="" id="svg_2" points="143.33536529541016,116.27068328857422 142.5834732055664,116.27068328857422 142.5834732055664,115.51879119873047 141.83158111572266,114.01505279541016 141.83158111572266,112.51128387451172 140.32782745361328,110.2556381225586 140.32782745361328,107.99999237060547 138.8240737915039,106.4962387084961 138.8240737915039,105.74437713623047 137.32032012939453,104.24060821533203 136.56842803955078,103.48873138427734 135.0646743774414,101.9849624633789 133.56092071533203,100.48120880126953 132.05716705322266,98.97745513916016 131.3052749633789,96.72179412841797 129.04962921142578,95.2180404663086 126.79401397705078,94.46617889404297 126.04212188720703,92.96240997314453 124.53836822509766,92.96240997314453 122.28270721435547,91.4586410522461 120.77896881103516,90.70677947998047 119.27519989013672,90.70677947998047 117.77141571044922,90.70677947998047 114.76390838623047,90.70677947998047 114.01203155517578,90.70677947998047 113.26016998291016,90.70677947998047 111.75641632080078,90.70677947998047 110.25263214111328,90.70677947998047 107.99701690673828,90.70677947998047 105.7413558959961,90.70677947998047 104.23761749267578,92.21051788330078 101.23006439208984,93.71428680419922 98.9744644165039,94.46617889404297 98.22257232666016,95.96991729736328 97.4706802368164,96.72179412841797 95.96692657470703,97.47370147705078 93.71126556396484,99.72933197021484 92.20752716064453,100.48120880126953 91.4556655883789,101.9849624633789 90.70377349853516,103.48873138427734 88.44812774658203,106.4962387084961 87.6962661743164,109.50377655029297 86.19251251220703,111.75939178466797 85.44062042236328,113.26314544677734 84.68872833251953,115.51879119873047 83.9368667602539,117.7744369506836 83.9368667602539,119.27820587158203 83.18497467041016,121.5338363647461 83.18497467041016,122.28571319580078 83.18497467041016,123.78948211669922 82.43311309814453,126.79700469970703 82.43311309814453,129.0526351928711 81.68122100830078,135.06768035888672 81.68122100830078,137.32329559326172 81.68122100830078,140.3308334350586 81.68122100830078,144.0902328491211 81.68122100830078,146.34587860107422 81.68122100830078,149.35338592529297 81.68122100830078,150.8571548461914 81.68122100830078,153.86467742919922 81.68122100830078,155.3684310913086 82.43311309814453,157.6240463256836 83.18497467041016,159.87969207763672 83.9368667602539,160.63158416748047 84.68872833251953,162.13533782958984 85.44062042236328,162.8872299194336 86.19251251220703,163.63909149169922 86.94437408447266,165.1428451538086 88.44812774658203,165.89473724365234 89.20001983642578,166.6466293334961 89.95186614990234,166.6466293334961 91.4556655883789,167.39849090576172 92.20752716064453,168.9022445678711 93.71126556396484,169.65412139892578 94.46317291259766,169.65412139892578 96.71881866455078,171.15789031982422 98.9744644165039,171.15789031982422 101.23006439208984,171.15789031982422 104.23761749267578,171.15789031982422 106.4932632446289,171.90978240966797 108.7488784790039,171.90978240966797 111.00452423095703,171.90978240966797 113.26016998291016,171.90978240966797 114.76390838623047,171.90978240966797 116.26766204833984,171.90978240966797 118.52332305908203,171.90978240966797 120.02706146240234,171.90978240966797 120.77896881103516,171.90978240966797 122.28270721435547,171.90978240966797 123.03461456298828,171.90978240966797 125.29021453857422,171.90978240966797 126.04212188720703,171.15789031982422 126.79401397705078,171.15789031982422 127.5458755493164,171.15789031982422 128.2977523803711,171.15789031982422 128.2977523803711,170.4060287475586 129.04962921142578,170.4060287475586 129.80152130126953,170.4060287475586 130.55341339111328,169.65412139892578 131.3052749633789,169.65412139892578 132.05716705322266,169.65412139892578 132.80902862548828,169.65412139892578 133.56092071533203,169.65412139892578 134.31278228759766,169.65412139892578 135.0646743774414,169.65412139892578 135.81656646728516,168.9022445678711 136.56842803955078,168.9022445678711 137.32032012939453,168.9022445678711 138.07218170166016,168.9022445678711 138.8240737915039,168.9022445678711 139.57596588134766,168.9022445678711 139.57596588134766,168.1503677368164 140.32782745361328,168.1503677368164 141.07970428466797,168.1503677368164 141.07970428466797,167.39849090576172 141.83158111572266,167.39849090576172 142.5834732055664,166.6466293334961 143.33536529541016,166.6466293334961 144.08722686767578,166.6466293334961 144.08722686767578,165.89473724365234 144.83911895751953,165.89473724365234 144.83911895751953,165.1428451538086 145.59098052978516,165.1428451538086 145.59098052978516,164.39098358154297 145.59098052978516,163.63909149169922 145.59098052978516,162.8872299194336 145.59098052978516,162.13533782958984 146.3428726196289,162.13533782958984 147.09476470947266,162.13533782958984 147.09476470947266,161.3834457397461 147.84662628173828,161.3834457397461 147.84662628173828,160.63158416748047 147.84662628173828,159.87969207763672 148.59851837158203,159.87969207763672 148.59851837158203,159.1278305053711 " style="color: rgb(11, 234, 219);" class=""/><polyline fill="#e8e841" stroke="#0bd50b" stroke-width="14" stroke-linejoin="round" stroke-dashoffset="" fill-rule="nonzero" marker-start="" marker-mid="" marker-end="" points="143.33536529541016,116.27068328857422 142.5834732055664,116.27068328857422 142.5834732055664,115.51879119873047 141.83158111572266,114.01505279541016 141.83158111572266,112.51128387451172 140.32782745361328,110.2556381225586 140.32782745361328,107.99999237060547 138.8240737915039,106.4962387084961 138.8240737915039,105.74437713623047 137.32032012939453,104.24060821533203 136.56842803955078,103.48873138427734 135.0646743774414,101.9849624633789 133.56092071533203,100.48120880126953 132.05716705322266,98.97745513916016 131.3052749633789,96.72179412841797 129.04962921142578,95.2180404663086 126.79401397705078,94.46617889404297 126.04212188720703,92.96240997314453 124.53836822509766,92.96240997314453 122.28270721435547,91.4586410522461 120.77896881103516,90.70677947998047 119.27519989013672,90.70677947998047 117.77141571044922,90.70677947998047 114.76390838623047,90.70677947998047 114.01203155517578,90.70677947998047 113.26016998291016,90.70677947998047 111.75641632080078,90.70677947998047 110.25263214111328,90.70677947998047 107.99701690673828,90.70677947998047 105.7413558959961,90.70677947998047 104.23761749267578,92.21051788330078 101.23006439208984,93.71428680419922 98.9744644165039,94.46617889404297 98.22257232666016,95.96991729736328 97.4706802368164,96.72179412841797 95.96692657470703,97.47370147705078 93.71126556396484,99.72933197021484 92.20752716064453,100.48120880126953 91.4556655883789,101.9849624633789 90.70377349853516,103.48873138427734 88.44812774658203,106.4962387084961 87.6962661743164,109.50377655029297 86.19251251220703,111.75939178466797 85.44062042236328,113.26314544677734 84.68872833251953,115.51879119873047 83.9368667602539,117.7744369506836 83.9368667602539,119.27820587158203 83.18497467041016,121.5338363647461 83.18497467041016,122.28571319580078 83.18497467041016,123.78948211669922 82.43311309814453,126.79700469970703 82.43311309814453,129.0526351928711 81.68122100830078,135.06768035888672 81.68122100830078,137.32329559326172 81.68122100830078,140.3308334350586 81.68122100830078,144.0902328491211 81.68122100830078,146.34587860107422 81.68122100830078,149.35338592529297 81.68122100830078,150.8571548461914 81.68122100830078,153.86467742919922 81.68122100830078,155.3684310913086 82.43311309814453,157.6240463256836 83.18497467041016,159.87969207763672 83.9368667602539,160.63158416748047 84.68872833251953,162.13533782958984 85.44062042236328,162.8872299194336 86.19251251220703,163.63909149169922 86.94437408447266,165.1428451538086 88.44812774658203,165.89473724365234 89.20001983642578,166.6466293334961 89.95186614990234,166.6466293334961 91.4556655883789,167.39849090576172 92.20752716064453,168.9022445678711 93.71126556396484,169.65412139892578 94.46317291259766,169.65412139892578 96.71881866455078,171.15789031982422 98.9744644165039,171.15789031982422 101.23006439208984,171.15789031982422 104.23761749267578,171.15789031982422 106.4932632446289,171.90978240966797 108.7488784790039,171.90978240966797 111.00452423095703,171.90978240966797 113.26016998291016,171.90978240966797 114.76390838623047,171.90978240966797 116.26766204833984,171.90978240966797 118.52332305908203,171.90978240966797 120.02706146240234,171.90978240966797 120.77896881103516,171.90978240966797 122.28270721435547,171.90978240966797 123.03461456298828,171.90978240966797 125.29021453857422,171.90978240966797 126.04212188720703,171.15789031982422 126.79401397705078,171.15789031982422 127.5458755493164,171.15789031982422 128.2977523803711,171.15789031982422 128.2977523803711,170.4060287475586 129.04962921142578,170.4060287475586 129.80152130126953,170.4060287475586 130.55341339111328,169.65412139892578 131.3052749633789,169.65412139892578 132.05716705322266,169.65412139892578 132.80902862548828,169.65412139892578 133.56092071533203,169.65412139892578 134.31278228759766,169.65412139892578 135.0646743774414,169.65412139892578 135.81656646728516,168.9022445678711 136.56842803955078,168.9022445678711 137.32032012939453,168.9022445678711 138.07218170166016,168.9022445678711 138.8240737915039,168.9022445678711 139.57596588134766,168.9022445678711 139.57596588134766,168.1503677368164 140.32782745361328,168.1503677368164 141.07970428466797,168.1503677368164 141.07970428466797,167.39849090576172 141.83158111572266,167.39849090576172 142.5834732055664,166.6466293334961 143.33536529541016,166.6466293334961 144.08722686767578,166.6466293334961 144.08722686767578,165.89473724365234 144.83911895751953,165.89473724365234 144.83911895751953,165.1428451538086 145.59098052978516,165.1428451538086 145.59098052978516,164.39098358154297 145.59098052978516,163.63909149169922 145.59098052978516,162.8872299194336 145.59098052978516,162.13533782958984 146.3428726196289,162.13533782958984 147.09476470947266,162.13533782958984 147.09476470947266,161.3834457397461 147.84662628173828,161.3834457397461 147.84662628173828,160.63158416748047 147.84662628173828,159.87969207763672 148.59851837158203,159.87969207763672 148.59851837158203,159.1278305053711 " style="color: rgb(11, 234, 219);" class="" id="svg_3"/></g></svg>